# xmcd
#
# Track frame offsets:
#	150
#	17440
#	29346
#	41701
#	54479
#	68607
#	89300
#	91184
#	114517
#	133363
#	148650
#	162151
#	174410
#	189448
#	213349
#
# Disc length: 3055 seconds
#
# Revision: 1
# Processed by: cddbd v1.5.1PL2 Copyright (c) Steve Scherf et al.
# Submitted via: audiograbber 1.83.01
#
DISCID=c70bed0f
DTITLE=Jack Ingram - Young Man
DYEAR=2004
DGENRE=Country
TTITLE0=Beat Up Ford
TTITLE1=Make My Heart Flutter
TTITLE2=Sight Unseen
TTITLE3=Living Beyond My Means
TTITLE4=Things Get Cloudy
TTITLE5=Song for Amy
TTITLE6=Drive On
TTITLE7=Lonesome Question
TTITLE8=Still Got Scars
TTITLE9=Younger Days
TTITLE10=Tuesday Night
TTITLE11=Workin'
TTITLE12=Mary Go Round
TTITLE13=One Light Town
TTITLE14=Travis County
EXTD=
EXTT0=
EXTT1=
EXTT2=
EXTT3=
EXTT4=
EXTT5=
EXTT6=
EXTT7=
EXTT8=
EXTT9=
EXTT10=
EXTT11=
EXTT12=
EXTT13=
EXTT14=
PLAYORDER=
